<?xml version="1.0" encoding="UTF-8"?>
<svg width="746px" height="746px" viewBox="0 0 746 746" version="1.1" xmlns="http://www.w3.org/2000/svg" xmlns:xlink="http://www.w3.org/1999/xlink">
    <!-- Generator: Sketch 49.3 (51167) - http://www.bohemiancoding.com/sketch -->
    <title>Artboard 2</title>
    <desc>Created with Sketch.</desc>
    <defs></defs>
    <g id="Artboard-2" stroke="none" stroke-width="1" fill="none" fill-rule="evenodd">
        <g id="Group-6" transform="translate(1.000000, 2.000000)">
            <g id="Group-7" transform="translate(116.000000, 273.000000)"></g>
            <g id="烟斗-[转换]" transform="translate(65.000000, 194.000000)">
                <g id="Group"></g>
            </g>
            <circle id="Oval" fill="#000000" cx="371.5" cy="371.5" r="371.5"></circle>
            <polygon id="Shape" fill="#FFFFFF" points="158.728136 283.373847 170.604193 263.339097 134.424161 241.892205 100.782692 194.938517 89.4364217 214.068615 107.537475 238.825212 77.0526524 234.963889 65.2207446 254.866251 122.548104 261.926956"></polygon>
            <polygon id="Shape" fill="#FFFFFF" transform="translate(286.000000, 380.500000) rotate(1.000000) translate(-286.000000, -380.500000) " points="118 383.877589 191.336555 485 229.779713 484.645446 296.148918 435.773036 454 279.433571 450.35583 276 267.731947 383.914911 213.956842 327.540893"></polygon>
            <polygon id="Shape" fill="#FFFFFF" transform="translate(455.798189, 380.416088) scale(-1, 1) rotate(1.000000) translate(-455.798189, -380.416088) " points="287.798189 383.793678 361.134744 484.916088 399.577903 484.561535 465.947107 435.689124 623.798189 279.34966 620.15402 275.916088 437.530136 383.830999 383.755031 327.456981"></polygon>
            <path d="M176.829189,198.777776 L151.26697,162.856439 L185.614822,190.415253 L176.829189,198.777776 Z M181.155782,243.878029 L197.755773,228.057637 L187.314555,212.744733 L199.764548,200.895987 L214.576507,212.016597 L231.48554,195.931429 L150.781332,142.248006 L131.775226,160.341063 L181.155782,243.878029 Z" id="Shape" fill="#FFFFFF"></path>
            <polygon id="Shape" fill="#FFFFFF" points="233.030752 194.563417 252.765315 184.060619 224.708682 137.967454 266.31903 176.801331 287.17939 165.680721 241.683938 80.4227085 221.706556 91.0799601 250.71239 138.916236 208.152841 98.3171827 187.5353 109.305405"></polygon>
            <path d="M311.814482,140.791736 L298.304915,79.1650204 C298.856777,79.0326322 299.408638,78.9223087 299.91635,78.8340499 C300.446137,78.7237264 300.997999,78.5913382 301.54986,78.4589499 C304.198795,77.9735265 306.781506,78.0397206 309.275919,78.6134029 C311.748258,79.2091498 313.403842,81.3052966 314.242672,84.9239079 L323.690539,127.86182 C324.661815,132.274761 323.933358,135.297625 321.593465,136.952478 C319.209424,138.60733 315.964479,139.887083 311.814482,140.791736 Z M293.02912,163.606639 L323.955432,156.81071 C334.308351,154.538046 341.217656,150.853241 344.727494,145.712165 C348.237333,140.571089 349.252757,134.503296 347.72962,127.508785 L336.58202,76.892356 C334.661543,68.1767983 330.864736,63.0136578 325.169527,61.3808698 C319.474318,59.7701465 310.46794,60.321764 298.12832,63.0136578 L272.146686,68.7284159 L293.02912,163.606639 Z" id="Shape" fill="#FFFFFF"></path>
            <path d="M384.329067,77.3777795 C384.461513,74.7520798 385.410715,72.8324507 387.132522,71.618892 C388.85433,70.427398 390.752733,69.8757805 392.783583,69.9640393 C392.849806,69.9640393 392.91603,70.0081687 392.982253,70.0081687 L393.202997,70.0081687 C395.101401,70.206751 396.823208,70.9790156 398.412569,72.3470272 C399.957781,73.7371035 400.686238,75.7008621 400.553791,78.2383029 L397.882782,126.846844 C397.706186,129.538737 396.779059,131.502496 395.101401,132.760184 C393.379593,133.995808 391.569488,134.613619 389.671085,134.613619 L389.472415,134.613619 C389.406191,134.613619 389.339968,134.56949 389.273744,134.56949 C387.22082,134.481231 385.410715,133.686902 383.821354,132.208567 C382.231993,130.752296 381.503536,128.678214 381.680132,125.98632 L384.329067,77.3777795 Z M358.855145,119.344845 C358.391582,127.332267 360.157538,134.547425 364.13094,140.946189 C368.082268,147.411147 375.918699,150.919435 387.61816,151.581376 C399.052728,152.199188 407.48517,149.882394 412.783039,144.675124 C418.102983,139.445789 421.038885,132.120308 421.546598,122.742809 L423.864415,80.5109673 C424.350053,71.7733449 422.164682,65.2863222 417.352451,61.1381581 C412.518146,57.0120586 407.08783,54.3422295 401.017355,53.1728003 L397.507516,52.6653121 C396.33757,52.5329239 395.167624,52.4226004 394.019752,52.3564062 C385.300343,51.8709828 377.772953,53.4817061 371.437585,57.1444468 C365.080142,60.8071875 361.680676,67.4486631 361.150889,77.1130031 L358.855145,119.344845 Z" id="Shape" fill="#FFFFFF"></path>
            <path d="M454.790727,62.5061696 L431.877443,129.825579 C428.809093,138.872107 429.184359,146.241718 433.025314,152.02267 C436.844195,157.781557 443.885946,162.415145 454.128493,165.901368 C462.693382,168.791844 470.176622,169.10075 476.55614,166.783956 C482.935657,164.445098 487.990707,157.825687 491.72129,146.903659 L513.61915,82.4526612 L491.301876,74.9065328 L468.101623,143.174724 C467.196571,145.822488 465.827954,147.653859 463.951626,148.624706 C462.097372,149.617617 460.309341,149.926523 458.609608,149.551423 C458.477161,149.617617 458.344714,149.617617 458.168119,149.551423 L457.616257,149.352841 C457.505885,149.352841 457.439662,149.308711 457.417587,149.308711 C457.329289,149.308711 457.263066,149.264582 457.196843,149.198388 C455.585407,148.580576 454.305089,147.344953 453.400036,145.513582 C452.517058,143.682212 452.450835,141.586065 453.26759,139.203077 L476.821033,69.986104 L454.790727,62.5061696 Z" id="Shape" fill="#FFFFFF"></path>
            <polygon id="Shape" fill="#FFFFFF" points="493.001609 180.772978 511.323406 191.959782 522.912495 173.050332 504.590698 161.841463"></polygon>
            <path d="M578.650494,196.130011 L569.246776,205.750222 C567.171778,207.890498 565.008481,208.993733 562.756887,209.126121 C560.483218,209.192315 558.628963,208.640698 557.105826,207.449204 C556.973379,207.449204 556.818858,207.38301 556.686411,207.228557 C556.553965,207.096169 556.421518,206.96378 556.266997,206.853457 C556.200773,206.787263 556.112476,206.676939 556.002103,206.610745 C555.891731,206.478357 555.825508,206.412163 555.759284,206.345969 C554.589338,204.889698 553.971253,203.168652 553.90503,201.160764 C553.816732,199.130811 554.545189,197.34357 556.112476,195.754911 L591.76272,159.237828 C593.352081,157.582975 595.073889,156.876905 596.950217,157.075487 C598.804472,157.274069 600.460056,157.93601 601.91697,159.083375 L602.137714,159.348151 L602.424682,159.590863 L602.667501,159.833575 L602.932395,160.076286 C604.036117,161.444298 604.698351,163.010892 604.985319,164.731939 C605.250212,166.452986 604.7425,167.97545 603.462182,169.277268 L594.742772,178.213472 L612.402336,195.401876 L618.296215,189.378212 C625.095148,182.405766 628.075199,175.234737 627.258444,167.865127 C626.419615,160.495516 622.600734,153.412746 615.779728,146.727141 C607.325211,138.519072 599.532929,134.701878 592.380805,135.27556 C585.250756,135.915437 579.003685,138.938301 573.661667,144.410347 L543.640408,175.146479 C535.914349,183.067707 532.205841,190.591771 532.536958,197.608346 C532.890149,204.646987 536.929774,211.950403 544.677908,219.540661 C545.715407,220.533573 546.863279,221.570614 548.143597,222.651784 C549.401841,223.644696 550.748383,224.615543 552.205297,225.476066 C556.973379,228.498931 562.315397,230.264107 568.253426,230.815724 C574.147305,231.301148 579.665919,228.962289 584.765118,223.71089 L595.603676,212.656474 L578.650494,196.130011 Z" id="Shape" fill="#FFFFFF"></path>
            <path d="M646.816411,227.395695 C648.736889,226.29246 650.591143,226.226266 652.401248,227.108854 C654.189279,228.035572 655.602044,229.381519 656.639544,231.146695 C656.661618,231.212889 656.705767,231.279083 656.749916,231.323213 C656.749916,231.389407 656.771991,231.455601 656.838214,231.521795 C657.743267,233.242842 658.162681,235.118342 658.052309,237.0821 C657.941937,239.045859 656.948586,240.568323 655.094332,241.627429 L612.446485,266.40609 C610.062444,267.752037 607.899147,268.060943 605.890372,267.354873 C603.903671,266.582608 602.336384,265.413179 601.320959,263.758326 C601.232662,263.648003 601.210587,263.581808 601.210587,263.559744 L601.100215,263.383226 C600.062716,261.595985 599.731599,259.632227 600.062716,257.49195 C600.415907,255.28548 601.784523,253.520304 604.168564,252.174357 L646.816411,227.395695 Z M596.994366,229.249131 C589.996764,233.309036 584.853416,238.825212 581.586397,245.753528 C578.297303,252.70391 579.643845,261.287079 585.626022,271.525102 C591.453678,281.586606 598.076015,287.411688 605.493031,289.000346 C612.865899,290.589005 620.702331,288.956217 628.936103,284.212306 L666.087411,262.655091 C672.643524,258.793768 676.087139,253.82921 676.44033,247.805546 C676.771447,241.693623 675.711873,235.802347 673.305757,230.04346 C672.753896,229.006419 672.224109,227.947313 671.672248,226.844078 L670.016664,223.688825 C665.579698,216.076503 660.281829,210.450004 654.189279,206.831392 C648.052581,203.212781 641.386095,203.499622 634.145674,207.691916 L596.994366,229.249131 Z" id="Shape" fill="#FFFFFF"></path>
            <path d="M211.73,565.16 L211.73,572.24 L202.37,572.24 L202.37,608 L193.73,608 L193.73,572.24 L184.37,572.24 L184.37,565.16 L211.73,565.16 Z M225.44,586.58 C225.44,589.460014 225.509999,591.90999 225.65,593.93 C225.790001,595.95001 226.069998,597.589994 226.49,598.85 C226.910002,600.110006 227.509996,601.029997 228.29,601.61 C229.070004,602.190003 230.099994,602.48 231.38,602.48 C232.660006,602.48 233.689996,602.190003 234.47,601.61 C235.250004,601.029997 235.849998,600.110006 236.27,598.85 C236.690002,597.589994 236.969999,595.95001 237.11,593.93 C237.250001,591.90999 237.32,589.460014 237.32,586.58 C237.32,583.699986 237.250001,581.26001 237.11,579.26 C236.969999,577.25999 236.690002,575.620006 236.27,574.34 C235.849998,573.059994 235.250004,572.130003 234.47,571.55 C233.689996,570.969997 232.660006,570.68 231.38,570.68 C230.099994,570.68 229.070004,570.969997 228.29,571.55 C227.509996,572.130003 226.910002,573.059994 226.49,574.34 C226.069998,575.620006 225.790001,577.25999 225.65,579.26 C225.509999,581.26001 225.44,583.699986 225.44,586.58 Z M216.8,586.58 C216.8,583.339984 216.949998,580.350014 217.25,577.61 C217.550001,574.869986 218.209995,572.52001 219.23,570.56 C220.250005,568.59999 221.71999,567.070005 223.64,565.97 C225.56001,564.869994 228.139984,564.32 231.38,564.32 C234.620016,564.32 237.19999,564.869994 239.12,565.97 C241.04001,567.070005 242.509995,568.59999 243.53,570.56 C244.550005,572.52001 245.209998,574.869986 245.51,577.61 C245.810001,580.350014 245.96,583.339984 245.96,586.58 C245.96,589.860016 245.810001,592.859986 245.51,595.58 C245.209998,598.300014 244.550005,600.63999 243.53,602.6 C242.509995,604.56001 241.04001,606.059995 239.12,607.1 C237.19999,608.140005 234.620016,608.66 231.38,608.66 C228.139984,608.66 225.56001,608.140005 223.64,607.1 C221.71999,606.059995 220.250005,604.56001 219.23,602.6 C218.209995,600.63999 217.550001,598.300014 217.25,595.58 C216.949998,592.859986 216.8,589.860016 216.8,586.58 Z M261.95,601.64 L265.31,601.64 C267.39001,601.64 269.069994,601.180005 270.35,600.26 C271.630006,599.339995 272.27,597.640012 272.27,595.16 C272.27,593.919994 272.100002,592.890004 271.76,592.07 C271.419998,591.249996 270.960003,590.590003 270.38,590.09 C269.799997,589.589998 269.110004,589.240001 268.31,589.04 C267.509996,588.839999 266.630005,588.74 265.67,588.74 L261.95,588.74 L261.95,601.64 Z M261.95,582.74 L264.41,582.74 C266.810012,582.74 268.559994,582.310004 269.66,581.45 C270.760005,580.589996 271.31,579.14001 271.31,577.1 C271.31,575.05999 270.810005,573.620004 269.81,572.78 C268.809995,571.939996 267.230011,571.52 265.07,571.52 L261.95,571.52 L261.95,582.74 Z M253.31,565.16 L267.77,565.16 C269.530009,565.16 271.159992,565.339998 272.66,565.7 C274.160007,566.060002 275.449995,566.659996 276.53,567.5 C277.610005,568.340004 278.449997,569.459993 279.05,570.86 C279.650003,572.260007 279.95,573.97999 279.95,576.02 C279.95,578.340012 279.410005,580.329992 278.33,581.99 C277.249995,583.650008 275.630011,584.779997 273.47,585.38 L273.47,585.5 C275.870012,585.820002 277.769993,586.839991 279.17,588.56 C280.570007,590.280009 281.27,592.579986 281.27,595.46 C281.27,597.140008 281.050002,598.739992 280.61,600.26 C280.169998,601.780008 279.420005,603.109994 278.36,604.25 C277.299995,605.390006 275.920008,606.299997 274.22,606.98 C272.519991,607.660003 270.410013,608 267.89,608 L253.31,608 L253.31,565.16 Z M306.8,591.86 L302.66,572.6 L302.54,572.6 L298.4,591.86 L306.8,591.86 Z M307.94,565.16 L319.28,608 L310.28,608 L308.3,598.94 L296.9,598.94 L294.92,608 L285.92,608 L297.26,565.16 L307.94,565.16 Z M342.83,579.62 C342.83,576.499984 342.460004,574.230007 341.72,572.81 C340.979996,571.389993 339.63001,570.68 337.67,570.68 C336.589995,570.68 335.700003,570.969997 335,571.55 C334.299996,572.130003 333.750002,573.069994 333.35,574.37 C332.949998,575.670007 332.670001,577.369989 332.51,579.47 C332.349999,581.57001 332.27,584.139985 332.27,587.18 C332.27,590.420016 332.379999,593.03999 332.6,595.04 C332.820001,597.04001 333.159998,598.589995 333.62,599.69 C334.080002,600.790006 334.659996,601.529998 335.36,601.91 C336.060003,602.290002 336.869995,602.48 337.79,602.48 C338.550004,602.48 339.259997,602.350001 339.92,602.09 C340.580003,601.829999 341.149998,601.310004 341.63,600.53 C342.110002,599.749996 342.489999,598.650007 342.77,597.23 C343.050001,595.809993 343.19,593.940012 343.19,591.62 L351.83,591.62 C351.83,593.940012 351.650002,596.13999 351.29,598.22 C350.929998,600.30001 350.260005,602.119992 349.28,603.68 C348.299995,605.240008 346.920009,606.459996 345.14,607.34 C343.359991,608.220004 341.050014,608.66 338.21,608.66 C334.969984,608.66 332.39001,608.140005 330.47,607.1 C328.54999,606.059995 327.080005,604.56001 326.06,602.6 C325.039995,600.63999 324.380001,598.300014 324.08,595.58 C323.779998,592.859986 323.63,589.860016 323.63,586.58 C323.63,583.339984 323.779998,580.350014 324.08,577.61 C324.380001,574.869986 325.039995,572.52001 326.06,570.56 C327.080005,568.59999 328.54999,567.070005 330.47,565.97 C332.39001,564.869994 334.969984,564.32 338.21,564.32 C341.290015,564.32 343.719991,564.819995 345.5,565.82 C347.280009,566.820005 348.609996,568.089992 349.49,569.63 C350.370004,571.170008 350.919999,572.829991 351.14,574.61 C351.360001,576.390009 351.47,578.059992 351.47,579.62 L342.83,579.62 Z M377.3,579.62 C377.3,576.499984 376.930004,574.230007 376.19,572.81 C375.449996,571.389993 374.10001,570.68 372.14,570.68 C371.059995,570.68 370.170003,570.969997 369.47,571.55 C368.769996,572.130003 368.220002,573.069994 367.82,574.37 C367.419998,575.670007 367.140001,577.369989 366.98,579.47 C366.819999,581.57001 366.74,584.139985 366.74,587.18 C366.74,590.420016 366.849999,593.03999 367.07,595.04 C367.290001,597.04001 367.629998,598.589995 368.09,599.69 C368.550002,600.790006 369.129996,601.529998 369.83,601.91 C370.530003,602.290002 371.339995,602.48 372.26,602.48 C373.020004,602.48 373.729997,602.350001 374.39,602.09 C375.050003,601.829999 375.619998,601.310004 376.1,600.53 C376.580002,599.749996 376.959999,598.650007 377.24,597.23 C377.520001,595.809993 377.66,593.940012 377.66,591.62 L386.3,591.62 C386.3,593.940012 386.120002,596.13999 385.76,598.22 C385.399998,600.30001 384.730005,602.119992 383.75,603.68 C382.769995,605.240008 381.390009,606.459996 379.61,607.34 C377.829991,608.220004 375.520014,608.66 372.68,608.66 C369.439984,608.66 366.86001,608.140005 364.94,607.1 C363.01999,606.059995 361.550005,604.56001 360.53,602.6 C359.509995,600.63999 358.850001,598.300014 358.55,595.58 C358.249998,592.859986 358.1,589.860016 358.1,586.58 C358.1,583.339984 358.249998,580.350014 358.55,577.61 C358.850001,574.869986 359.509995,572.52001 360.53,570.56 C361.550005,568.59999 363.01999,567.070005 364.94,565.97 C366.86001,564.869994 369.439984,564.32 372.68,564.32 C375.760015,564.32 378.189991,564.819995 379.97,565.82 C381.750009,566.820005 383.079996,568.089992 383.96,569.63 C384.840004,571.170008 385.389999,572.829991 385.61,574.61 C385.830001,576.390009 385.94,578.059992 385.94,579.62 L377.3,579.62 Z M401.21,586.58 C401.21,589.460014 401.279999,591.90999 401.42,593.93 C401.560001,595.95001 401.839998,597.589994 402.26,598.85 C402.680002,600.110006 403.279996,601.029997 404.06,601.61 C404.840004,602.190003 405.869994,602.48 407.15,602.48 C408.430006,602.48 409.459996,602.190003 410.24,601.61 C411.020004,601.029997 411.619998,600.110006 412.04,598.85 C412.460002,597.589994 412.739999,595.95001 412.88,593.93 C413.020001,591.90999 413.09,589.460014 413.09,586.58 C413.09,583.699986 413.020001,581.26001 412.88,579.26 C412.739999,577.25999 412.460002,575.620006 412.04,574.34 C411.619998,573.059994 411.020004,572.130003 410.24,571.55 C409.459996,570.969997 408.430006,570.68 407.15,570.68 C405.869994,570.68 404.840004,570.969997 404.06,571.55 C403.279996,572.130003 402.680002,573.059994 402.26,574.34 C401.839998,575.620006 401.560001,577.25999 401.42,579.26 C401.279999,581.26001 401.21,583.699986 401.21,586.58 Z M392.57,586.58 C392.57,583.339984 392.719998,580.350014 393.02,577.61 C393.320001,574.869986 393.979995,572.52001 395,570.56 C396.020005,568.59999 397.48999,567.070005 399.41,565.97 C401.33001,564.869994 403.909984,564.32 407.15,564.32 C410.390016,564.32 412.96999,564.869994 414.89,565.97 C416.81001,567.070005 418.279995,568.59999 419.3,570.56 C420.320005,572.52001 420.979998,574.869986 421.28,577.61 C421.580001,580.350014 421.73,583.339984 421.73,586.58 C421.73,589.860016 421.580001,592.859986 421.28,595.58 C420.979998,598.300014 420.320005,600.63999 419.3,602.6 C418.279995,604.56001 416.81001,606.059995 414.89,607.1 C412.96999,608.140005 410.390016,608.66 407.15,608.66 C403.909984,608.66 401.33001,608.140005 399.41,607.1 C397.48999,606.059995 396.020005,604.56001 395,602.6 C393.979995,600.63999 393.320001,598.300014 393.02,595.58 C392.719998,592.859986 392.57,589.860016 392.57,586.58 Z M454.37,584.54 L458.21,584.54 C459.930009,584.54 461.319995,584.020005 462.38,582.98 C463.440005,581.939995 463.97,580.320011 463.97,578.12 C463.97,575.959989 463.510005,574.320006 462.59,573.2 C461.669995,572.079994 460.130011,571.52 457.97,571.52 L454.37,571.52 L454.37,584.54 Z M445.73,565.16 L460.85,565.16 C463.050011,565.16 464.899992,565.529996 466.4,566.27 C467.900007,567.010004 469.109995,567.979994 470.03,569.18 C470.950005,570.380006 471.609998,571.749992 472.01,573.29 C472.410002,574.830008 472.61,576.399992 472.61,578 C472.61,580.200011 472.280003,582.119992 471.62,583.76 C470.959997,585.400008 470.040006,586.739995 468.86,587.78 C467.679994,588.820005 466.250008,589.599997 464.57,590.12 C462.889992,590.640003 461.03001,590.9 458.99,590.9 L454.37,590.9 L454.37,608 L445.73,608 L445.73,565.16 Z M479.54,608 L479.54,565.16 L488.18,565.16 L488.18,608 L479.54,608 Z M505.49,584.54 L509.33,584.54 C511.050009,584.54 512.439995,584.020005 513.5,582.98 C514.560005,581.939995 515.09,580.320011 515.09,578.12 C515.09,575.959989 514.630005,574.320006 513.71,573.2 C512.789995,572.079994 511.250011,571.52 509.09,571.52 L505.49,571.52 L505.49,584.54 Z M496.85,565.16 L511.97,565.16 C514.170011,565.16 516.019992,565.529996 517.52,566.27 C519.020007,567.010004 520.229995,567.979994 521.15,569.18 C522.070005,570.380006 522.729998,571.749992 523.13,573.29 C523.530002,574.830008 523.73,576.399992 523.73,578 C523.73,580.200011 523.400003,582.119992 522.74,583.76 C522.079997,585.400008 521.160006,586.739995 519.98,587.78 C518.799994,588.820005 517.370008,589.599997 515.69,590.12 C514.009992,590.640003 512.15001,590.9 510.11,590.9 L505.49,590.9 L505.49,608 L496.85,608 L496.85,565.16 Z M554.18,565.16 L554.18,572.24 L538.88,572.24 L538.88,582.32 L553.28,582.32 L553.28,589.4 L538.88,589.4 L538.88,600.92 L554.78,600.92 L554.78,608 L530.24,608 L530.24,565.16 L554.18,565.16 Z" id="Tobacco-Pipe" fill="#FFFFFF"></path>
            <rect id="Rectangle-15" fill="#FFFFFF" x="313" y="669" width="117" height="10"></rect>
        </g>
    </g>
</svg>