<?xml version="1.0" encoding="UTF-8"?>
<svg width="180px" height="60px" viewBox="0 0 180 60" version="1.1" xmlns="http://www.w3.org/2000/svg" xmlns:xlink="http://www.w3.org/1999/xlink">
    <!-- Generator: Sketch 49.3 (51167) - http://www.bohemiancoding.com/sketch -->
    <title>Group 4</title>
    <desc>Created with Sketch.</desc>
    <defs></defs>
    <g id="Page-1" stroke="none" stroke-width="1" fill="none" fill-rule="evenodd">
        <g id="Group-4">
            <rect id="Rectangle-14" fill="#444444" x="0" y="0" width="180" height="60" rx="30"></rect>
            <g id="Group-3" transform="translate(14.000000, 10.000000)">
                <g id="zk" transform="translate(8.000000, 5.000000)"></g>
                <circle id="Oval" fill="#FFFFFF" cx="20" cy="20" r="20"></circle>
                <path d="M18.0424166,5.010364 C19.2952717,5.99183546 20.7346127,6.87070326 21.5732838,8.21387855 C22.5768042,10.0431258 22.9291697,12.4921406 23.5607488,14.4654475 C23.7987501,15.540195 23.6637796,16.3672428 23.6637796,17.3176222 C24.8548162,18.113578 26.1179743,19.4163336 26.8422811,20.6558689 C27.2358591,21.5347366 26.9875549,21.4000045 27.94059,21.5243726 C28.4371988,21.6477043 29.1408993,22.0197722 29.6694478,21.8238924 C30.9006664,21.6891604 32.1844306,22.888276 31.8846109,24.1174472 C32.3709164,25.099955 31.1912133,26.5778623 30.735817,27.1976301 C30.5596343,28.7677772 30.2175717,29.243485 28.9647167,29.8321606 C28.3434407,30.5348404 27.8983476,31.3722521 27.2564653,31.920508 C26.801069,32.4884555 25.2483941,33.1704072 25.2483941,33.5113831 C25.9520947,35.8163382 19.6682434,34.9063785 19.6682434,34.3177028 C18.3319333,33.7901748 16.8936227,33.418107 15.5057972,33.418107 C15.071007,33.5113831 14.7814903,33.6979353 14.4703372,33.7383548 C14.1602143,33.4284709 14.5537922,33.0149472 14.7608842,32.6024597 C14.1705174,32.5920955 13.7254242,32.7154272 13.2288155,32.7776114 C12.4828721,32.6335516 13.3524525,31.5691682 13.5801507,31.247884 C13.0732389,31.1660082 12.7723888,31.506984 12.462266,31.455164 C12.1624462,30.9069082 12.2448709,30.4011445 12.3901444,29.729557 C12.4004475,29.698465 12.4931752,29.5948248 12.4931752,29.4497286 C11.9862635,29.2538489 10.7437114,29.9254367 11.2094109,28.9957853 C11.4680183,28.6859013 11.8203838,28.4268013 12.2345678,28.1583735 C12.2345678,28.0961894 12.2345678,28.0340055 12.2448709,27.9728577 C11.9656573,25.9259665 11.8512931,23.2707078 12.5034783,21.1833968 C12.5343876,21.1315768 12.6075395,21.0072087 12.6590549,20.821693 C12.6178426,20.7595089 12.6178426,20.7595089 12.2757802,20.5014451 C11.6235949,19.9013691 11.096077,19.3645136 10.485104,18.713654 C9.04576311,16.7496746 8,14.6416356 8,12.0993447 C8.0721216,10.1260378 8.38327475,8.23460655 9.65673602,6.4986354 C9.7391607,6.40535935 10.7024991,5.35133983 10.9714096,5.8892318 C10.7746207,6.89143126 11.4886245,7.93508675 12.048082,8.62740241 C13.7563334,10.3011895 15.3090083,11.7169129 15.5789491,14.1970198 C15.6201614,14.7141837 15.7231923,17.3590783 16.0137393,17.6492704 C16.2208313,17.5249024 16.4279233,17.4005343 16.6453184,17.2772026 C17.0275628,17.0906505 17.5252018,16.9258628 18.0218105,16.7807667 C18.0630228,16.6356706 17.669445,15.6334711 17.5973234,15.3961354 C16.8833196,12.6983843 15.9817997,10.1975495 16.5515603,7.34537476 C16.71744,6.93288729 17.3181098,5.20624375 17.9496889,5 C17.9805981,5.010364 18.0115074,5.010364 18.0424166,5.010364 Z" id="Combined-Shape" fill="#444444" fill-rule="nonzero"></path>
                <g id="pipe" transform="translate(32.500000, 30.500000) rotate(13.000000) translate(-32.500000, -30.500000) translate(29.000000, 29.000000)" fill="#444444" fill-rule="nonzero">
                    <path d="M1.60361418,1.074301 L3.69500769,1.074301 C3.71103047,1.01930114 3.71103047,1.02618615 3.8232701,0.730623479 L4.04780281,0.148651413 C4.07185703,0.0799273643 4.1480287,0.0318125107 4.23621411,0.0318125107 L6.24073183,0.0318125107 C6.32891725,0.0318125107 6.40508892,0.0799273643 6.42914314,0.148651413 L6.65367585,0.730623479 C6.71780705,0.902462242 6.72982079,0.916197887 6.78193826,1.074301 C6.92226786,1.51076001 6.80599247,1.97473612 6.45720638,2.33214929 C6.1685692,2.62428665 5.72756193,2.79268863 5.24649105,2.79268863 C5.24248201,2.79268863 5.24248201,2.79268863 5.23845961,2.79268863 C4.82153329,2.79268863 4.4526753,2.67239004 4.16403811,2.44901111 L2.20496949,2.44901111 C1.9297719,2.44901111 1.69846366,2.29151641 1.62666998,2.07568644 L1.60361418,2.10533358 L0.200451772,2.10533358 C0.08974894,2.10533358 0,2.02839564 0,1.93349482 L0,1.24613977 C0,1.15123895 0.08974894,1.074301 0.200451772,1.074301 L1.60361418,1.074301 Z" id="Combined-Shape"></path>
                </g>
            </g>
            <path d="M70.312,32.32 L66.928,24.4 L69.628,24.4 L71.374,29.17 L71.554,30.538 L71.644,30.538 L71.842,29.134 L73.552,24.4 L75.982,24.4 L72.58,32.302 L72.58,37 L70.312,37 L70.312,32.32 Z M81.121,34.156 L78.151,34.156 L77.413,37 L75.163,37 L78.817,24.31 L80.599,24.31 L84.271,37 L81.895,37 L81.121,34.156 Z M78.637,32.284 L80.725,32.284 L80.005,29.35 L79.717,27.37 L79.645,27.37 L79.339,29.368 L78.637,32.284 Z M88.492,30.808 L87.664,28.594 L87.574,28.594 L87.862,30.772 L87.862,37 L85.72,37 L85.72,24.31 L87.466,24.31 L91.084,30.646 L91.858,32.824 L91.966,32.824 L91.678,30.682 L91.678,24.4 L93.82,24.4 L93.82,37.09 L92.074,37.09 L88.492,30.808 Z M96.115,24.4 C96.3310011,24.3639998 96.5739987,24.3370001 96.844,24.319 C97.1140014,24.3009999 97.3899986,24.2830001 97.672,24.265 C97.9540014,24.2469999 98.2269987,24.235 98.491,24.229 C98.7550013,24.223 98.988999,24.22 99.193,24.22 C100.189005,24.22 101.019997,24.3729985 101.686,24.679 C102.352003,24.9850015 102.885998,25.4169972 103.288,25.975 C103.690002,26.5330028 103.974999,27.2019961 104.143,27.982 C104.311001,28.7620039 104.395,29.6319952 104.395,30.592 C104.395,31.4680044 104.314001,32.304996 104.152,33.103 C103.989999,33.901004 103.705002,34.602997 103.297,35.209 C102.888998,35.815003 102.337003,36.2979982 101.641,36.658 C100.944997,37.0180018 100.069005,37.198 99.013,37.198 C98.8569992,37.198 98.6470013,37.1920001 98.383,37.18 C98.1189987,37.1679999 97.8430014,37.1530001 97.555,37.135 C97.2669986,37.1169999 96.9910013,37.0990001 96.727,37.081 C96.4629987,37.0629999 96.2590007,37.0420001 96.115,37.018 L96.115,24.4 Z M99.427,26.308 C99.234999,26.308 99.040001,26.311 98.842,26.317 C98.643999,26.323 98.4910005,26.3379999 98.383,26.362 L98.383,35.038 C98.4190002,35.0500001 98.4819996,35.059 98.572,35.065 C98.6620005,35.071 98.7579995,35.077 98.86,35.083 C98.9620005,35.089 99.0579996,35.095 99.148,35.101 C99.2380005,35.107 99.3009998,35.11 99.337,35.11 C99.8770027,35.11 100.320998,34.9840013 100.669,34.732 C101.017002,34.4799987 101.289999,34.1440021 101.488,33.724 C101.686001,33.3039979 101.824,32.8210027 101.902,32.275 C101.98,31.7289973 102.019,31.156003 102.019,30.556 C102.019,30.0039972 101.986,29.4700026 101.92,28.954 C101.854,28.4379974 101.728001,27.985002 101.542,27.595 C101.355999,27.204998 101.092002,26.8930012 100.75,26.659 C100.407998,26.4249988 99.9670027,26.308 99.427,26.308 Z M106.132,30.7 C106.132,28.5639893 106.497996,26.9380056 107.23,25.822 C107.962004,24.7059944 109.077993,24.148 110.578,24.148 C111.358004,24.148 112.029997,24.3009985 112.594,24.607 C113.158003,24.9130015 113.619998,25.3509971 113.98,25.921 C114.340002,26.4910028 114.606999,27.1809959 114.781,27.991 C114.955001,28.801004 115.042,29.703995 115.042,30.7 C115.042,32.8360107 114.667004,34.4619944 113.917,35.578 C113.166996,36.6940056 112.054007,37.252 110.578,37.252 C109.785996,37.252 109.111003,37.0990015 108.553,36.793 C107.994997,36.4869985 107.536002,36.0490029 107.176,35.479 C106.815998,34.9089972 106.552001,34.219004 106.384,33.409 C106.215999,32.598996 106.132,31.696005 106.132,30.7 Z M108.508,30.7 C108.508,31.3360032 108.544,31.9269973 108.616,32.473 C108.688,33.0190027 108.807999,33.489998 108.976,33.886 C109.144001,34.282002 109.356999,34.5939989 109.615,34.822 C109.873001,35.0500011 110.193998,35.164 110.578,35.164 C111.274003,35.164 111.795998,34.8100035 112.144,34.102 C112.492002,33.3939965 112.666,32.2600078 112.666,30.7 C112.666,30.0879969 112.63,29.5090027 112.558,28.963 C112.486,28.4169973 112.369001,27.943002 112.207,27.541 C112.044999,27.138998 111.832001,26.8210012 111.568,26.587 C111.303999,26.3529988 110.974002,26.236 110.578,26.236 C109.197993,26.236 108.508,27.7239851 108.508,30.7 Z M122.611,24.4 L124.753,24.4 L124.753,32.572 C124.753,34.2040082 124.420003,35.3859963 123.754,36.118 C123.087997,36.8500037 122.167006,37.216 120.991,37.216 C119.610993,37.216 118.600003,36.8590036 117.958,36.145 C117.315997,35.4309964 116.995,34.3420073 116.995,32.878 L116.995,24.4 L119.263,24.4 L119.263,32.482 C119.263,33.4660049 119.394999,34.1529981 119.659,34.543 C119.923001,34.9330019 120.360997,35.128 120.973,35.128 C121.561003,35.128 121.980999,34.9210021 122.233,34.507 C122.485001,34.0929979 122.611,33.4180047 122.611,32.482 L122.611,24.4 Z M126.796,35.83 C126.796,35.3859978 126.912999,35.0500011 127.147,34.822 C127.381001,34.5939989 127.689998,34.48 128.074,34.48 C128.494002,34.48 128.817999,34.5939989 129.046,34.822 C129.274001,35.0500011 129.388,35.3859978 129.388,35.83 C129.388,36.2620022 129.271001,36.5979988 129.037,36.838 C128.802999,37.0780012 128.482002,37.198 128.074,37.198 C127.677998,37.198 127.366001,37.0780012 127.138,36.838 C126.909999,36.5979988 126.796,36.2620022 126.796,35.83 Z M138.271,36.496 C137.958998,36.7600013 137.542003,36.9519994 137.02,37.072 C136.497997,37.1920006 135.979003,37.252 135.463,37.252 C134.814997,37.252 134.212003,37.1410011 133.654,36.919 C133.095997,36.6969989 132.607002,36.3280026 132.187,35.812 C131.766998,35.2959974 131.437001,34.6180042 131.197,33.778 C130.956999,32.9379958 130.837,31.9060061 130.837,30.682 C130.837,29.4099936 130.971999,28.3540042 131.242,27.514 C131.512001,26.6739958 131.865998,26.0050025 132.304,25.507 C132.742002,25.0089975 133.242997,24.658001 133.807,24.454 C134.371003,24.249999 134.940997,24.148 135.517,24.148 C136.105003,24.148 136.617998,24.1959995 137.056,24.292 C137.494002,24.3880005 137.850999,24.4959994 138.127,24.616 L137.677,26.614 C137.448999,26.4939994 137.182002,26.4010003 136.876,26.335 C136.569998,26.2689997 136.207002,26.236 135.787,26.236 C134.958996,26.236 134.323002,26.5959964 133.879,27.316 C133.434998,28.0360036 133.213,29.1639923 133.213,30.7 C133.213,31.3600033 133.263999,31.9629973 133.366,32.509 C133.468001,33.0550027 133.629999,33.525998 133.852,33.922 C134.074001,34.318002 134.355998,34.6239989 134.698,34.84 C135.040002,35.0560011 135.450998,35.164 135.931,35.164 C136.351002,35.164 136.710999,35.1070006 137.011,34.993 C137.311002,34.8789994 137.580999,34.7440008 137.821,34.588 L138.271,36.496 Z M139.234,30.7 C139.234,28.5639893 139.599996,26.9380056 140.332,25.822 C141.064004,24.7059944 142.179993,24.148 143.68,24.148 C144.460004,24.148 145.131997,24.3009985 145.696,24.607 C146.260003,24.9130015 146.721998,25.3509971 147.082,25.921 C147.442002,26.4910028 147.708999,27.1809959 147.883,27.991 C148.057001,28.801004 148.144,29.703995 148.144,30.7 C148.144,32.8360107 147.769004,34.4619944 147.019,35.578 C146.268996,36.6940056 145.156007,37.252 143.68,37.252 C142.887996,37.252 142.213003,37.0990015 141.655,36.793 C141.096997,36.4869985 140.638002,36.0490029 140.278,35.479 C139.917998,34.9089972 139.654001,34.219004 139.486,33.409 C139.317999,32.598996 139.234,31.696005 139.234,30.7 Z M141.61,30.7 C141.61,31.3360032 141.646,31.9269973 141.718,32.473 C141.79,33.0190027 141.909999,33.489998 142.078,33.886 C142.246001,34.282002 142.458999,34.5939989 142.717,34.822 C142.975001,35.0500011 143.295998,35.164 143.68,35.164 C144.376003,35.164 144.897998,34.8100035 145.246,34.102 C145.594002,33.3939965 145.768,32.2600078 145.768,30.7 C145.768,30.0879969 145.732,29.5090027 145.66,28.963 C145.588,28.4169973 145.471001,27.943002 145.309,27.541 C145.146999,27.138998 144.934001,26.8210012 144.67,26.587 C144.405999,26.3529988 144.076002,26.236 143.68,26.236 C142.299993,26.236 141.61,27.7239851 141.61,30.7 Z" id="YANDOU.CO" fill="#FFFFFF"></path>
        </g>
    </g>
</svg>